<svg width="46" height="50" viewBox="0 0 46 50" fill="none" xmlns="http://www.w3.org/2000/svg">
  <g clip-path="url(#clip0_47_208)">
    <path d="M6.31502 22.5062C6.61383 20.0323 7.14743 17.6675 7.90573 15.4776C10.1233 5.86117 15.6376 3.17736 23.071 2.85213L23.1479 2.84897L23.2253 2.85213C31.6502 3.21956 36.3324 7.05834 38.2772 15.351C39.092 17.6679 39.6528 20.1836 39.9516 22.8156C40.6421 21.4065 40.9009 19.2098 41.0759 17.7147L41.0903 17.5919C41.0797 16.1907 40.6218 15.5745 40.1373 14.923C39.7216 14.3636 39.25 13.7295 39.1923 12.7499C38.8161 6.30865 33.6083 0.0458984 23.1213 0.0458984C12.1486 0.0458984 7.43149 6.25737 7.05174 12.7494C6.99411 13.7363 6.50215 14.3647 6.0678 14.9192C5.54701 15.585 5.05557 16.2133 5.14842 17.7479C5.28928 20.0864 5.78392 21.5672 6.31539 22.5061L6.31502 22.5062Z" fill="#FF9B04" />
    <path d="M23.0239 34.3768C23.0223 34.3768 23.0196 34.3763 23.018 34.3763C23.0164 34.3763 23.0138 34.3768 23.0122 34.3768L23.0031 34.3763C21.6349 34.2735 19.3874 33.2239 17.3358 31.3999V31.8359C17.3358 31.8359 21.635 35.877 23.0031 35.9799L23.0122 35.9804C23.0138 35.9804 23.0164 35.9793 23.018 35.9793C23.0196 35.9793 23.0223 35.9804 23.0239 35.9804L23.033 35.9799C24.4006 35.8771 28.6997 31.8359 28.6997 31.8359V31.3999C26.648 33.2239 24.401 34.2735 23.033 34.3763L23.0239 34.3768Z" fill="#FF9B04" />
    <path d="M44.0426 41.5872C43.2807 40.652 40.0049 38.8502 38.9276 38.2825C38.0323 35.1227 37.7142 32.1516 37.4229 26.7034C37.4255 26.6328 37.4293 26.5648 37.4319 26.4931C37.4255 26.4989 37.4191 26.5041 37.4127 26.5094C37.4106 26.4683 37.4084 26.4298 37.4058 26.3882L35.5751 27.9686C33.907 29.19 32.1547 30.1647 30.3053 30.6477L29.9569 34.7659C29.9569 39.8103 26.8509 42.105 23.0938 42.105C19.3581 42.105 16.2681 39.815 16.2585 34.7807L15.9074 29.5381C15.0835 28.5144 14.3637 27.0025 13.8478 25.7003C14.2896 17.2447 22.3928 18.4339 27.893 13.4787C32.5352 21.0645 32.461 24.5258 32.4013 25.8048C30.3277 27.0879 28.5258 27.391 25.917 27.4833C25.6476 26.9356 25.0841 26.5544 24.4262 26.5544C23.5079 26.5544 22.7635 27.2898 22.7635 28.1971C22.7635 29.1044 23.5079 29.8397 24.4262 29.8397C24.4833 29.8397 24.5377 29.8287 24.5937 29.8229C25.1999 29.7622 25.7105 29.3864 25.9464 28.8582C31.0672 28.67 33.6279 27.4169 37.4656 23.9297C37.4597 22.3462 37.3733 20.7667 37.1817 19.2016C36.1353 10.2931 31.2572 5.2691 23.1502 4.91553C14.976 5.27346 10.0819 10.2661 9.03258 19.2043C8.91252 20.1901 8.81701 21.9455 8.77379 22.8428C8.41841 30.1676 8.1671 34.5494 7.10741 38.2868C4.24783 39.7923 2.38078 41.0744 1.96838 41.6169C1.51803 42.2189 0.537227 45.0892 -0.00384521 49.9787H32.1886L46.0399 49.9792" fill="#FF9B04" />
  </g>
  <defs>
    <clipPath id="clip0_47_208">
      <rect width="46" height="50" fill="white" />
    </clipPath>
  </defs>
</svg>