<svg width="22" height="22" viewBox="0 0 22 22" fill="none" xmlns="http://www.w3.org/2000/svg">
  <path d="M20.7249 19.8902L15.9136 15.0785C17.2042 13.5946 17.9856 11.6585 17.9856 9.54244C17.9856 4.88439 14.1971 1.1 9.54385 1.1C4.88615 1.1 1.10205 4.88878 1.10205 9.54244C1.10205 14.1961 4.89054 17.9849 9.54385 17.9849C11.6598 17.9849 13.5957 17.2034 15.0795 15.9127L19.8909 20.7244C20.005 20.8385 20.1586 20.9 20.3079 20.9C20.4572 20.9 20.6108 20.8429 20.7249 20.7244C20.9532 20.4961 20.9532 20.1185 20.7249 19.8902ZM2.28294 9.54244C2.28294 5.53854 5.54025 2.28536 9.53946 2.28536C13.5431 2.28536 16.796 5.54293 16.796 9.54244C16.796 13.5419 13.5431 16.8039 9.53946 16.8039C5.54025 16.8039 2.28294 13.5463 2.28294 9.54244Z" fill="#222222" stroke="#222222" stroke-width="0.2" />
</svg>